#!OML:ASF H:\GeneralSubjects\Female5\Project 1\Capture day 1\Session 1\Female5.ASF
:FULLY-SPECIFIED
:DEGREES
228
root 2.58539 16.3684 0.889109 178.513 -52.1083 168.995
lowerback 19.0429 0.755355 10.3575
upperback -4.06716 3.95653 3.80118
thorax -15.0981 1.00655 -2.71856
lowerneck -11.611 4.89776 7.08788
upperneck 32.9971 6.09837 -6.33388
head 13.4896 2.21167 -2.96291
rclavicle -4.77083e-014 3.49861e-014
rhumerus -91.4907 19.155 -115.916
rradius 59.3516
rwrist -34.0358
rhand -43.1888 -0.0763574
rfingers 7.12502
rthumb -16.0401 -29.4324
lclavicle -4.77083e-014 3.49861e-014
lhumerus -25.4085 11.338 29.1036
lradius 66.1155
lwrist 4.17416
lhand -38.6682 35.7438
lfingers 7.12502
lthumb -11.6837 65.398
rfemur -27.1648 -14.756 21.2872
rtibia 75.8231
rfoot -33.2209 3.93049
rtoes 7.09217
lfemur -23.3495 31.3266 -30.1116
ltibia 77.5761
lfoot -10.5589 -6.10142
ltoes -70.4747
229
root 2.59814 16.3789 0.887455 178.601 -52.3558 168.948
lowerback 19.034 0.787983 10.2177
upperback -4.14294 3.96784 3.71465
thorax -15.1836 1.01577 -2.74373
lowerneck -12.0864 4.90913 7.0083
upperneck 32.8762 6.15804 -6.36264
head 13.5439 2.2306 -2.93863
rclavicle -6.75868e-014 -1.145e-013
rhumerus -91.2058 18.9602 -116.103
rradius 58.9349
rwrist -34.4363
rhand -43.0321 0.0568944
rfingers 7.12502
rthumb -15.8893 -29.3112
lclavicle -6.75868e-014 -1.145e-013
lhumerus -25.3124 11.4956 28.8062
lradius 66.313
lwrist 4.84259
lhand -38.1422 36.1438
lfingers 7.12502
lthumb -11.1764 65.8262
rfemur -25.8945 -16.4772 20.8113
rtibia 73.487
rfoot -34.2921 4.45013
rtoes 5.52948
lfemur -22.8341 31.3658 -29.9478
ltibia 76.778
lfoot -11.6723 -6.284
ltoes -70.2475
230
root 2.60611 16.3924 0.884001 178.601 -52.5584 168.955
lowerback 18.9973 0.82725 10.1006
upperback -4.18634 3.98798 3.6579
thorax -15.2129 1.03175 -2.7491
lowerneck -12.4495 4.79189 6.64388
upperneck 32.8637 6.0714 -6.33922
head 13.5932 2.14783 -2.87348
rclavicle -1.74931e-014 7.63333e-014
rhumerus -90.7387 18.8084 -116.065
rradius 58.4205
rwrist -34.3365
rhand -42.8449 -0.0241578
rfingers 7.12502
rthumb -15.709 -29.4065
lclavicle -1.74931e-014 7.63333e-014
lhumerus -25.1578 11.569 28.4024
lradius 66.6333
lwrist 5.38389
lhand -37.8703 36.5956
lfingers 7.12502
lthumb -10.9142 66.292
rfemur -24.5231 -17.4425 20.4814
rtibia 71.0221
rfoot -35.1237 5.15517
rtoes 3.89867
lfemur -22.1199 31.4925 -29.6471
ltibia 75.9238
lfoot -12.6005 -6.78602
ltoes -70.0584
231
root 2.61054 16.4092 0.877423 178.719 -52.7083 168.821
lowerback 18.7714 0.854857 9.42818
upperback -4.07632 3.84141 3.85613
thorax -15.0076 1.05197 -2.09863
lowerneck -13.1372 4.92453 6.82817
upperneck 32.9781 6.45849 -7.07412
head 13.8701 2.23235 -3.13818
rclavicle 4.53229e-014 3.18055e-014
rhumerus -90.3032 19.2595 -115.844
rradius 57.9253
rwrist -33.9497
rhand -42.564 -0.156694
rfingers 7.12502
rthumb -15.4384 -29.5601
lclavicle 4.53229e-014 3.18055e-014
lhumerus -25.0176 12.5546 28.0494
lradius 66.7391
lwrist 5.2771
lhand -37.7089 37.023
lfingers 7.12502
lthumb -10.7585 66.7275
rfemur -25.112 -17.4844 20.7529
rtibia 73.1819
rfoot -32.6503 5.16266
rtoes 1.29602
lfemur -21.2575 31.6086 -29.4137
ltibia 74.9308
lfoot -13.8716 -7.31319
ltoes -70.0023
232
root 2.61239 16.4318 0.868282 178.827 -52.8686 168.822
lowerback 18.4113 0.876638 8.99831
upperback -4.10587 3.73532 3.97336
thorax -14.8647 1.05628 -1.68361
lowerneck -13.3072 5.09406 7.12556
upperneck 32.9199 6.80845 -7.59208
head 13.9538 2.35343 -3.34135
rclavicle 5.725e-014 1.59028e-014
rhumerus -90.0174 19.4001 -115.611
rradius 57.4571
rwrist -33.4293
rhand -42.1211 -0.338192
rfingers 7.12502
rthumb -15.0118 -29.774
lclavicle 5.725e-014 1.59028e-014
lhumerus -24.6673 13.2275 27.6282
lradius 66.892
lwrist 5.17906
lhand -37.6221 37.843
lfingers 7.12502
lthumb -10.6748 67.5518
rfemur -24.4371 -17.8782 20.5198
rtibia 71.8382
rfoot -32.6401 5.29677
rtoes 1.62776
lfemur -20.4651 31.6947 -29.2267
ltibia 73.7005
lfoot -14.9835 -7.45951
ltoes -69.7832
233
root 2.60819 16.46 0.857953 178.528 -53.0509 169.312
lowerback 18.0339 0.89229 8.97506
upperback -4.2291 3.72487 4.13951
thorax -14.7984 1.06072 -1.46528
lowerneck -13.0875 5.01782 6.98748
upperneck 32.9537 6.79935 -7.8126
head 13.9223 2.29624 -3.41578
rclavicle 2.3059e-014 4.45278e-014
rhumerus -89.8032 19.3851 -115.424
rradius 56.7264
rwrist -32.7735
rhand -42.0072 -0.267926
rfingers 7.12502
rthumb -14.9021 -29.7119
lclavicle 2.3059e-014 4.45278e-014
lhumerus -24.4716 13.2022 27.2315
lradius 67.5225
lwrist 5.75926
lhand -37.458 38.0879
lfingers 7.12502
lthumb -10.5164 67.8048
rfemur -23.5976 -18.0314 20.5535
rtibia 70.3337
rfoot -32.6439 5.20998
rtoes 2.36796
lfemur -19.6207 31.782 -28.8215
ltibia 72.3237
lfoot -15.996 -7.41929
ltoes -69.5176
234
root 2.59533 16.4914 0.846362 178.317 -53.2687 169.408
lowerback 17.7137 0.927198 8.75819
upperback -4.29465 3.69541 4.24771
thorax -14.7032 1.0753 -1.20368
lowerneck -12.9192 4.96752 6.8827
upperneck 33.2788 6.78272 -7.94992
head 14.0301 2.23821 -3.47622
rclavicle -5.56597e-014 6.36111e-014
rhumerus -89.4637 19.3787 -115.277
rradius 55.6802
rwrist -32.0056
rhand -42.304 -0.232296
rfingers 7.12502
rthumb -15.188 -29.6549
lclavicle -5.56597e-014 6.36111e-014
lhumerus -24.2335 12.9581 26.942
lradius 68.3543
lwrist 6.59769
lhand -37.4105 37.5475
lfingers 7.12502
lthumb -10.4707 67.2667
rfemur -22.5652 -18.1057 20.1753
rtibia 68.954
rfoot -32.6538 4.88924
rtoes 3.51093
lfemur -18.4409 31.843 -28.6869
ltibia 70.8626
lfoot -17.0238 -7.226
ltoes -69.2317
235
root 2.57626 16.5278 0.834062 178.379 -53.5679 169.032
lowerback 17.3943 0.944963 8.22788
upperback -4.34549 3.57287 4.32235
thorax -14.6098 1.07627 -0.78084
lowerneck -12.0389 4.83541 6.28761
upperneck 33.0637 6.6167 -7.56781
head 13.6759 2.15128 -3.24348
rclavicle -6.44062e-014 4.45278e-014
rhumerus -89.166 19.4966 -115.122
rradius 54.5974
rwrist -30.9591
rhand -42.558 -0.764842
rfingers 7.12502
rthumb -15.4327 -30.1687
lclavicle -6.44062e-014 4.45278e-014
lhumerus -24.0206 12.6813 26.7108
lradius 69.2597
lwrist 7.14585
lhand -37.0855 37.084
lfingers 7.12502
lthumb -10.1571 66.8188
rfemur -21.7048 -18.0932 19.458
rtibia 68.4622
rfoot -32.1587 4.25595
rtoes 4.10554
lfemur -17.1535 31.6369 -28.9321
ltibia 69.375
lfoot -17.9211 -6.46511
ltoes -68.7496
236
root 2.55387 16.5729 0.820736 178.224 -53.9444 168.952
lowerback 17.0417 0.92607 7.86197
upperback -4.43988 3.44507 4.48415
thorax -14.5453 1.05979 -0.347295
lowerneck -12.5411 5.15072 6.48909
upperneck 34.0689 7.07651 -7.75076
head 14.3067 2.30114 -3.32092
rclavicle -9.85972e-014 3.18055e-015
rhumerus -89.0382 19.665 -114.888
rradius 53.5476
rwrist -29.4982
rhand -42.5756 -1.67334
rfingers 7.12502
rthumb -15.4496 -31.0759
lclavicle -9.85972e-014 3.18055e-015
lhumerus -23.8182 12.3923 26.6564
lradius 70.3129
lwrist 7.32319
lhand -36.2354 36.8472
lfingers 7.12502
lthumb -9.33695 66.6204
rfemur -20.5438 -17.9154 18.8294
rtibia 67.3055
rfoot -32.0953 3.52945
rtoes 4.5191
lfemur -16.0601 31.057 -29.0824
ltibia 68.1197
lfoot -18.6552 -5.56769
ltoes -68.057
237
root 2.53237 16.6239 0.807587 177.945 -54.3614 168.966
lowerback 16.6597 0.924518 7.6343
upperback -4.51877 3.36376 4.60533
thorax -14.4297 1.05162 -0.0512098
lowerneck -12.3278 5.09044 6.52866
upperneck 34.4645 7.04211 -8.00966
head 14.4524 2.23234 -3.46743
rclavicle 9.14409e-014 9.54166e-014
rhumerus -88.7383 19.7663 -114.596
rradius 52.2774
rwrist -27.9887
rhand -42.4 -2.32085
rfingers 7.12502
rthumb -15.2805 -31.7364
lclavicle 9.14409e-014 9.54166e-014
lhumerus -23.4339 11.787 26.8609
lradius 71.5383
lwrist 7.89113
lhand -36.2011 36.8934
lfingers 7.12502
lthumb -9.30386 66.6681
rfemur -19.2427 -17.7264 18.2594
rtibia 65.8077
rfoot -32.4689 3.00255
rtoes 5.80162
lfemur -15.1752 30.2437 -29.2738
ltibia 67.1424
lfoot -19.5935 -4.62448
ltoes -67.8969
238
root 2.51251 16.6774 0.795741 177.622 -54.8083 168.924
lowerback 16.3609 0.933429 7.46182
upperback -4.6571 3.31801 4.63765
thorax -14.4243 1.04653 0.10246
lowerneck -11.5983 4.87424 6.14507
upperneck 34.854 6.65714 -7.63733
head 14.3901 2.04341 -3.33708
rclavicle 3.18055e-015 1.90833e-014
rhumerus -88.3743 19.7154 -114.39
rradius 50.6591
rwrist -26.6025
rhand -42.3183 -2.25677
rfingers 7.12502
rthumb -15.2018 -31.6783
lclavicle 3.18055e-015 1.90833e-014
lhumerus -23.237 10.3702 27.0571
lradius 72.946
lwrist 8.99961
lhand -36.9251 36.8482
lfingers 7.12502
lthumb -10.0024 66.5905
rfemur -17.9251 -17.612 17.6866
rtibia 64.4428
rfoot -32.829 2.66453
rtoes 6.79568
lfemur -14.3972 29.2785 -29.6077
ltibia 66.3009
lfoot -20.7785 -3.52414
ltoes -68.0939
239
root 2.48788 16.7349 0.78265 177.417 -55.3074 168.673
lowerback 16.0762 0.894477 6.81555
upperback -4.74298 3.12584 4.909
thorax -14.4085 1.02944 0.831018
lowerneck -10.9227 4.73706 5.60636
upperneck 35.099 6.55661 -7.65032
head 14.3156 1.90414 -3.28727
rclavicle -1.82882e-014 4.45278e-014
rhumerus -88.2398 20.2926 -114.309
rradius 48.9236
rwrist -25.5439
rhand -42.8458 -1.82029
rfingers 7.12502
rthumb -15.7099 -31.2026
lclavicle -1.82882e-014 4.45278e-014
lhumerus -23.8445 8.82053 27.3261
lradius 74.4631
lwrist 9.93281
lhand -37.7264 36.021
lfingers 7.12502
lthumb -10.7754 65.7246
rfemur -16.5228 -17.57 16.8902
rtibia 63.1674
rfoot -33.0518 2.13254
rtoes 6.84809
lfemur -13.5286 28.199 -30.1496
ltibia 65.4409
lfoot -21.7675 -2.50239
ltoes -67.8595
240
root 2.45883 16.7971 0.767956 177.299 -55.8175 168.308
lowerback 15.7068 0.886183 6.13636
upperback -4.82924 2.96202 5.18209
thorax -14.3364 1.02991 1.57256
lowerneck -10.8785 4.871 5.84533
upperneck 35.5127 6.87593 -8.20602
head 14.5701 1.97284 -3.53916
rclavicle -3.73715e-014 -2.22639e-014
rhumerus -87.885 20.7647 -113.786
rradius 47.3389
rwrist -25.2983
rhand -42.1396 -1.37635
rfingers 7.12502
rthumb -15.0297 -30.8108
lclavicle -3.73715e-014 -2.22639e-014
lhumerus -24.5314 7.17838 27.8372
lradius 75.7917
lwrist 10.2839
lhand -38.8077 34.2844
lfingers 7.12502
lthumb -11.8182 63.9309
rfemur -15.017 -17.543 15.9639
rtibia 61.6762
rfoot -33.3843 1.62276
rtoes 6.22614
lfemur -12.5356 27.0322 -30.7839
ltibia 64.5196
lfoot -22.6046 -1.67228
ltoes -67.495
